<svg class="icon-navbar" width="32" height="32" viewBox="0 0 32 32" fill="none" xmlns="http://www.w3.org/2000/svg">
<path class="icon_path" d="M4 7.5C3.72386 7.5 3.5 7.72386 3.5 8V23.9505L5.34893 14.7058C5.48916 14.0047 6.10478 13.5 6.8198 13.5H26H27.7802C28.7268 13.5 29.4367 14.366 29.2511 15.2942L26.6511 28.2942C26.5108 28.9953 25.8952 29.5 25.1802 29.5H3C2.72386 29.5 2.5 29.2761 2.5 29V8C2.5 7.17157 3.17157 6.5 4 6.5H8.66667C8.99122 6.5 9.30702 6.60527 9.56667 6.8L11.0333 7.9C11.1199 7.96491 11.2251 8 11.3333 8H25C25.8284 8 26.5 8.67157 26.5 9.5V13C26.5 13.2761 26.2761 13.5 26 13.5C25.7239 13.5 25.5 13.2761 25.5 13V9.5C25.5 9.22386 25.2761 9 25 9H11.3333C11.0088 9 10.693 8.89473 10.4333 8.7L8.96667 7.6C8.88012 7.53509 8.77485 7.5 8.66667 7.5H4ZM3.6099 28.5H25.1802C25.4185 28.5 25.6237 28.3318 25.6705 28.0981L28.2705 15.0981C28.3324 14.7887 28.0957 14.5 27.7802 14.5H6.8198C6.58146 14.5 6.37626 14.6682 6.32951 14.9019L3.6099 28.5Z" fill="#28344A"/>
</svg>
