<svg width="32" height="32" viewBox="0 0 32 32" fill="none" xmlns="http://www.w3.org/2000/svg">
<path d="M26 28.5L25.9568 28.5216C25.3276 28.8362 24.6338 29 23.9303 29H23.0274C19.6986 29 17 26.3014 17 22.9726V22.5208C17 19.4003 19.392 16.8007 22.5017 16.5415L22.9628 16.5031C26.2127 16.2323 29 18.797 29 22.0581V23.2841C29 23.8288 28.7047 24.3307 28.2285 24.5953V24.5953C27.7754 24.847 27.2246 24.847 26.7715 24.5953V24.5953C26.2953 24.3307 26 23.8288 26 23.2841V20.5M17 25H3V10M3 10L15 3L27 10M3 10L14.5528 15.7764C14.8343 15.9172 15.1657 15.9172 15.4472 15.7764L27 10M27 10V17.5M21 23V22.5C21 21.1193 22.1193 20 23.5 20V20C24.8807 20 26 21.1193 26 22.5V23C26 24.3807 24.8807 25.5 23.5 25.5V25.5C22.1193 25.5 21 24.3807 21 23Z" stroke="#28344A" stroke-linecap="round" stroke-linejoin="round"/>
</svg>
