<svg class="icon-main" width="24" height="24" viewBox="0 0 24 24" fill="none" xmlns="http://www.w3.org/2000/svg">
<rect width="24" height="24" rx="4" fill="#4A939B"/>
<path class="icon_path" d="M3.42161 6.10512C3.61586 5.95862 3.75701 5.89317 3.99248 5.83912C4.09709 5.81534 4.19276 5.79493 4.27854 5.80083C4.38377 5.80808 4.45666 5.85184 4.51877 5.89433C4.57465 5.93255 6.29965 7.16759 8.35392 8.6404C9.38048 9.37745 10.317 10.0469 10.9989 10.5321C11.3398 10.7747 11.6169 10.9711 11.8097 11.1067C11.8878 11.1616 11.9518 11.2064 12.0004 11.2402L12 11.2405L11.9692 11.2619C11.9433 11.2799 11.9242 11.2931 11.9116 11.3015L11.9003 11.309C11.8993 11.3096 11.9011 11.3085 11.9043 11.3067C11.9055 11.3059 11.9102 11.3033 11.9167 11.3002C11.9198 11.2988 11.9269 11.2956 11.9358 11.2925C11.9407 11.2907 11.9668 11.2815 12.0011 11.2815C12.0316 11.2815 12.0548 11.2887 12.0606 11.2906C12.0698 11.2934 12.0768 11.2964 12.0804 11.2979C12.0876 11.3011 12.0928 11.3039 12.0944 11.3048L12.0997 11.3078L12.0892 11.3009C12.0782 11.2936 12.0619 11.2826 12.0402 11.2676C12.0376 11.2659 12.035 11.2641 12.0323 11.2622L12.0004 11.2402C12.0496 11.2059 12.1143 11.1603 12.1934 11.1045C12.3878 10.9672 12.6674 10.7685 13.0115 10.5231C13.6997 10.0323 14.6455 9.35502 15.6819 8.60953C16.7187 7.86522 17.6696 7.18418 18.3663 6.68638C18.7147 6.4375 18.9996 6.23436 19.1999 6.092C19.3 6.02084 19.3792 5.96474 19.4346 5.92567L19.5003 5.87965L19.5025 5.87814C19.5041 5.87702 19.5059 5.87578 19.5077 5.87447C19.5182 5.86712 19.5322 5.85738 19.542 5.8518L19.5515 5.84701C19.6033 5.82103 19.6586 5.80285 19.7313 5.80083C19.7924 5.79913 19.8603 5.80935 19.9365 5.82346C20.5264 5.93312 20.9987 6.36869 21.1511 6.94228L21.1518 6.94511C21.1668 7.0053 21.1741 7.09454 21.1796 7.2462C21.1854 7.40443 21.1896 7.64892 21.1926 8.03313C21.1986 8.80226 21.2 10.1397 21.2 12.486C21.2 14.3811 21.1979 15.7231 21.193 16.6047C21.1905 17.0455 21.1873 17.3719 21.1834 17.5951C21.1814 17.7066 21.1792 17.7934 21.1767 17.8562C21.1747 17.9096 21.172 17.9659 21.1649 17.9996C21.1209 18.2107 21.0141 18.4213 20.8779 18.5991C20.7417 18.7769 20.5667 18.9346 20.3743 19.03L20.3732 19.0305C20.2423 19.0944 20.1247 19.1376 19.9749 19.163C19.8307 19.1874 19.6625 19.1942 19.4331 19.1942H18.8027V14.1658C18.8027 12.8379 18.7999 11.6326 18.7957 10.76C18.7936 10.3236 18.7912 9.97003 18.7885 9.7268C18.6105 9.85283 18.3613 10.03 18.0576 10.2464C17.4234 10.6983 16.552 11.3208 15.5971 12.0045L12.0037 14.572L8.39919 11.9958C7.44148 11.3108 6.56821 10.6884 5.93303 10.2373C5.63047 10.0224 5.38206 9.8465 5.20433 9.72123L5.2043 9.72553C5.20232 9.97024 5.20047 10.3244 5.19889 10.7619C5.19572 11.6367 5.19361 12.8436 5.19361 14.1715V19.2044L4.50447 19.1885C4.08868 19.1774 3.96578 19.1669 3.78893 19.0997L3.78641 19.0987C3.3849 18.9398 3.02506 18.5711 2.87871 18.1621C2.8359 18.0459 2.82433 17.9362 2.81648 17.2563C2.80843 16.5604 2.8063 15.2381 2.80213 12.6587L2.80204 12.6074C2.7992 10.7151 2.7992 9.36825 2.80273 8.47852C2.8045 8.03376 2.80716 7.70254 2.8108 7.47429C2.81262 7.36028 2.8147 7.271 2.81708 7.2057C2.81916 7.14853 2.8218 7.09482 2.82739 7.06192C2.89266 6.67298 3.09719 6.35042 3.42161 6.10512ZM18.9812 9.35315C18.9832 9.37219 18.985 9.45286 18.9869 9.58686ZM3.03654 17.9391C3.01018 17.6352 3.00861 16.6653 3.00213 12.6553L3.00206 12.6072C2.99636 8.82262 3.00206 7.2217 3.02465 7.09512C3.08085 6.7602 3.25534 6.48168 3.54206 6.2649C3.71379 6.13538 3.82914 6.08191 4.03724 6.03415C4.12557 6.01407 4.18503 6.0024 4.23132 6.00023C4.30152 5.99693 4.34146 6.01544 4.40587 6.0595C4.43599 6.0801 4.99576 6.48046 5.84665 7.08983C6.5058 7.5619 7.33965 8.15939 8.23729 8.80296C10.2908 10.2773 11.9842 11.4816 12.0011 11.4816C12.0151 11.4816 13.7254 10.2633 15.7986 8.7721C17.8719 7.28361 19.6019 6.04829 19.6412 6.02588C19.7031 5.99483 19.7481 5.99208 19.9 6.02019C20.4148 6.1159 20.8255 6.49565 20.9578 6.99371C20.9669 7.03026 20.9741 7.09847 20.9798 7.25351C20.9741 7.0984 20.9669 7.03017 20.9577 6.99361C20.8255 6.49555 20.4148 6.11581 19.9 6.02009C19.7481 5.99198 19.7031 5.99474 19.6412 6.02578C19.6019 6.0482 17.8719 7.28352 15.7985 8.772C13.7254 10.2632 12.0151 11.4815 12.0011 11.4815C11.9842 11.4815 10.2907 10.2772 8.23728 8.80286C7.34059 8.15998 6.50757 7.56307 5.84875 7.09125C4.99668 6.48102 4.436 6.08002 4.40586 6.0594C4.34141 6.01532 4.30146 5.99681 4.23119 6.00014C4.18491 6.00233 4.12548 6.01399 4.03723 6.03405C3.82912 6.08182 3.71378 6.13528 3.54204 6.2648C3.25533 6.48159 3.08084 6.7601 3.02464 7.09502C3.00204 7.2216 2.99635 8.82252 3.00204 12.6071L3.00212 12.6552V12.6552C3.0086 16.6656 3.01017 17.6353 3.03654 17.9391ZM19.0027 18.9942L19.0027 14.1659C19.0027 14.1658 19.0027 14.1658 19.0027 14.1658V18.9942ZM18.9803 9.34879C18.9804 9.34894 18.9804 9.34913 18.9805 9.34936C18.9807 9.35032 18.9811 9.35185 18.9812 9.35315C18.9829 9.37019 18.9846 9.43555 18.9862 9.54343L18.9869 9.58686" fill="#F3F3FA"/>
</svg>
