<svg class="icon-main" width="24" height="24" viewBox="0 0 24 24" fill="none" xmlns="http://www.w3.org/2000/svg">
<rect width="24" height="24" rx="4" fill="#4A939B"/>
<path class="icon_path" d="M7.85748 5.86652C7.85748 6.9013 7.11345 7.73078 5.91724 7.73078H5.89495C4.74332 7.73153 4 6.90055 4 5.86652C4 4.80692 4.76704 4 5.93952 4C7.11345 3.99925 7.83592 4.80692 7.85748 5.86652ZM4.20129 19.9992H7.63176V9.20549H4.20129V19.9992ZM16.0512 8.95281C14.2317 8.95281 13.4173 9.99812 12.9593 10.7351V10.7697H12.9371C12.9457 10.7592 12.9536 10.7471 12.9593 10.7351V9.20624H9.52959C9.57416 10.2177 9.52959 20 9.52959 20H12.9593V13.9718C12.9593 13.6469 12.9802 13.3288 13.0722 13.0964C13.3209 12.4542 13.886 11.7827 14.8306 11.7827C16.0735 11.7827 16.5702 12.7746 16.5702 14.2245V20H20V13.8116C20.0007 10.4937 18.307 8.95281 16.0512 8.95281Z" fill="#F3F3FA"/>
</svg>
