<svg width="32" height="32" viewBox="0 0 32 32" fill="none" xmlns="http://www.w3.org/2000/svg">
<path d="M5 29H4.5C4.5 29.2761 4.72386 29.5 5 29.5V29ZM27 29V29.5C27.2761 29.5 27.5 29.2761 27.5 29H27ZM5 29.5H27V28.5H5V29.5ZM27.5 29V26H26.5V29H27.5ZM19 17.5H13V18.5H19V17.5ZM4.5 26V29H5.5V26H4.5ZM13 17.5C8.30558 17.5 4.5 21.3056 4.5 26H5.5C5.5 21.8579 8.85786 18.5 13 18.5V17.5ZM22.5 9C22.5 5.41015 19.5899 2.5 16 2.5V3.5C19.0376 3.5 21.5 5.96243 21.5 9H22.5ZM16 15.5C19.5899 15.5 22.5 12.5899 22.5 9H21.5C21.5 12.0376 19.0376 14.5 16 14.5V15.5ZM27.5 26C27.5 21.3056 23.6944 17.5 19 17.5V18.5C23.1421 18.5 26.5 21.8579 26.5 26H27.5ZM9.5 9C9.5 12.5899 12.4101 15.5 16 15.5V14.5C12.9624 14.5 10.5 12.0376 10.5 9H9.5ZM10.5 9C10.5 5.96243 12.9624 3.5 16 3.5V2.5C12.4101 2.5 9.5 5.41015 9.5 9H10.5Z" fill="#28344A"/>
</svg>
