<svg class="icon-main" width="24" height="24" viewBox="0 0 24 24" fill="none" xmlns="http://www.w3.org/2000/svg">
<rect width="24" height="24" rx="4" fill="#4A939B"/>
<path class="icon_path" d="M19.4998 7.6H14.2499V6H19.4998V7.6ZM20.7943 15.6C20.4628 16.6376 19.2726 18 16.9686 18C14.6631 18 12.7956 16.6168 12.7956 13.46C12.7956 10.332 14.5394 8.724 16.8951 8.724C19.2066 8.724 20.6181 10.1496 20.9263 12.2648C20.9848 12.6696 21.0081 13.2152 20.9976 13.9768H14.9774C15.0749 16.5456 17.5896 16.6264 18.4183 15.6H20.7943ZM15.0299 12.4H18.7536C18.6748 11.1624 17.9016 10.6248 16.8959 10.6248C15.7964 10.6248 15.1881 11.2392 15.0299 12.4ZM7.84945 17.9904H3V6.0168H8.21469C12.3216 6.0816 12.3996 10.372 10.2547 11.5416C12.8504 12.5496 12.9374 17.9904 7.84945 17.9904V17.9904ZM5.24998 10.8H7.93795C9.81893 10.8 10.1174 8.4 7.70395 8.4H5.24998V10.8V10.8ZM7.7932 13.2H5.24998V15.6128H7.7557C10.0469 15.6128 9.90668 13.2 7.7932 13.2V13.2Z" fill="#F3F3FA"/>
</svg>
