<svg width="24" height="24" viewBox="0 0 24 24" fill="none" xmlns="http://www.w3.org/2000/svg">
<path d="M15.7729 18.0269C15.9033 18.158 15.9764 18.3354 15.9764 18.5204C15.9764 18.7053 15.9033 18.8827 15.7729 19.0139L12.4969 22.2968C12.4303 22.3606 12.3518 22.4105 12.2659 22.4438C12.1821 22.4809 12.0915 22.5 11.9999 22.5C11.9083 22.5 11.8177 22.4809 11.7339 22.4438C11.648 22.4105 11.5695 22.3606 11.5029 22.2968L8.22695 18.9999C8.14206 18.9418 8.07102 18.8657 8.01888 18.7771C7.96673 18.6884 7.93477 18.5893 7.92525 18.4869C7.91573 18.3845 7.9289 18.2813 7.96382 18.1845C7.99874 18.0878 8.05454 17.9999 8.12727 17.9272C8.2 17.8545 8.28786 17.7987 8.3846 17.7637C8.48135 17.7288 8.5846 17.7157 8.68701 17.7252C8.78942 17.7347 8.88848 17.7667 8.97713 17.8188C9.06578 17.8709 9.14186 17.942 9.19994 18.0269L11.2999 20.1269V8.71694C11.2999 8.53129 11.3737 8.35325 11.5049 8.22197C11.6362 8.0907 11.8143 8.01695 11.9999 8.01695C12.1856 8.01695 12.3636 8.0907 12.4949 8.22197C12.6262 8.35325 12.6999 8.53129 12.6999 8.71694V20.1129L14.7999 18.0129C14.9322 17.8886 15.1077 17.8205 15.2892 17.8232C15.4708 17.8258 15.6442 17.8988 15.7729 18.0269ZM19.5529 1.5H4.44698C3.66596 1.50185 2.91746 1.81293 2.36519 2.36519C1.81293 2.91746 1.50185 3.66596 1.5 4.44698V13.5469C1.50553 14.3255 1.81824 15.0704 2.3701 15.6197C2.92197 16.1689 3.66837 16.4781 4.44698 16.4799H8.71694C8.90259 16.4799 9.08064 16.4061 9.21191 16.2749C9.34319 16.1436 9.41694 15.9655 9.41694 15.7799C9.41694 15.5942 9.34319 15.4162 9.21191 15.2849C9.08064 15.1536 8.90259 15.0799 8.71694 15.0799H4.44698C4.03669 15.0799 3.64321 14.9169 3.35309 14.6268C3.06297 14.3367 2.89999 13.9432 2.89999 13.5329V4.43298C2.90368 4.02512 3.06829 3.63523 3.35801 3.34813C3.64773 3.06104 4.0391 2.89997 4.44698 2.89999H19.5529C19.9631 2.89999 20.3566 3.06297 20.6467 3.35309C20.9369 3.64321 21.0998 4.03669 21.0998 4.44698V13.5469C21.0998 13.9572 20.9369 14.3507 20.6467 14.6408C20.3566 14.9309 19.9631 15.0939 19.5529 15.0939H15.1709C14.9852 15.0939 14.8072 15.1676 14.6759 15.2989C14.5446 15.4302 14.4709 15.6082 14.4709 15.7939C14.4709 15.9795 14.5446 16.1576 14.6759 16.2889C14.8072 16.4201 14.9852 16.4939 15.1709 16.4939H19.5529C19.9408 16.493 20.3247 16.4156 20.6828 16.2663C21.0408 16.117 21.3659 15.8987 21.6396 15.6237C21.9132 15.3488 22.1301 15.0226 22.2777 14.6639C22.4253 14.3051 22.5008 13.9208 22.4998 13.5329V4.43298C22.4943 3.65439 22.1816 2.90947 21.6297 2.36022C21.0779 1.81098 20.3315 1.50183 19.5529 1.5Z" fill="#4A939B"/>
</svg>
