<svg class="icon-navbar" width="32" height="32" viewBox="0 0 32 32" fill="none" xmlns="http://www.w3.org/2000/svg">
<path class="icon_path" d="M15.6952 2.60369C15.8749 2.46544 16.1252 2.46544 16.3049 2.60369L29.3049 12.6037C29.5238 12.7721 29.5647 13.086 29.3963 13.3049C29.228 13.5237 28.914 13.5647 28.6952 13.3963L27.5 12.477V29C27.5 29.2761 27.2762 29.5 27 29.5H20C19.7239 29.5 19.5 29.2761 19.5 29V19.5H12.5V29C12.5 29.2761 12.2762 29.5 12 29.5H5.00002C4.72388 29.5 4.50002 29.2761 4.50002 29V12.477L3.30488 13.3963C3.086 13.5647 2.77208 13.5237 2.60371 13.3049C2.43535 13.086 2.47629 12.7721 2.69517 12.6037L15.6952 2.60369ZM5.43677 11.7564C5.47706 11.8285 5.50002 11.9116 5.50002 12V28.5H11.5V19C11.5 18.7239 11.7239 18.5 12 18.5H20C20.2762 18.5 20.5 18.7239 20.5 19V28.5H26.5V12C26.5 11.9116 26.523 11.8285 26.5633 11.7564L16 3.63082L5.43677 11.7564Z" fill="#28344A"/>
</svg>

