<svg width="32" height="32" viewBox="0 0 32 32" fill="none" xmlns="http://www.w3.org/2000/svg">
<path d="M3 29V8C3 7.44772 3.44772 7 4 7H8.66667C8.88304 7 9.09357 7.07018 9.26667 7.2L10.7333 8.3C10.9064 8.42982 11.117 8.5 11.3333 8.5H25C25.5523 8.5 26 8.94772 26 9.5V13M3 29H25.1802C25.6569 29 26.0673 28.6635 26.1608 28.1961L28.7608 15.1961C28.8845 14.5773 28.4112 14 27.7802 14H6.8198C6.34312 14 5.93271 14.3365 5.83922 14.8039L3 29Z" stroke="#28344A" stroke-linecap="round" stroke-linejoin="round"/>
</svg>
