<svg class="icon-navbar" width="32" height="32" viewBox="0 0 32 32" fill="none" xmlns="http://www.w3.org/2000/svg">
<path class="icon_path" d="M16 3.5C12.9624 3.5 10.5 5.96243 10.5 9C10.5 12.0376 12.9624 14.5 16 14.5C19.0376 14.5 21.5 12.0376 21.5 9C21.5 5.96243 19.0376 3.5 16 3.5ZM9.5 9C9.5 5.41015 12.4101 2.5 16 2.5C19.5899 2.5 22.5 5.41015 22.5 9C22.5 12.5899 19.5899 15.5 16 15.5C12.4101 15.5 9.5 12.5899 9.5 9ZM4.5 26C4.5 21.3056 8.30558 17.5 13 17.5H19C23.6944 17.5 27.5 21.3056 27.5 26V29C27.5 29.2761 27.2761 29.5 27 29.5H5C4.72386 29.5 4.5 29.2761 4.5 29V26ZM13 18.5C8.85786 18.5 5.5 21.8579 5.5 26V28.5H26.5V26C26.5 21.8579 23.1421 18.5 19 18.5H13Z" fill="#28344A"/>
</svg>
