<svg width="24" height="24" viewBox="0 0 24 24" fill="none" xmlns="http://www.w3.org/2000/svg">
<rect width="24" height="24" rx="4" fill="#4A939B"/>
<path d="M21.067 17.9795C21.0267 18.1729 20.9276 18.37 20.7985 18.5386C20.6694 18.7071 20.5056 18.8535 20.3299 18.9406L20.3299 18.9406L20.3294 18.9409C20.2048 19.0017 20.0964 19.0412 19.9582 19.0646C19.8228 19.0875 19.6617 19.0945 19.4331 19.0945H19.0027H18.9027V18.9945V14.166C18.9027 12.838 18.8999 11.6325 18.8957 10.7597C18.8936 10.3233 18.8912 9.97027 18.8886 9.72675C18.8878 9.65255 18.887 9.58864 18.8861 9.5357C18.8486 9.56213 18.8044 9.59335 18.7539 9.62905C18.5745 9.75599 18.3167 9.93926 17.9995 10.1652C17.3653 10.6171 16.494 11.2396 15.539 11.9233L15.5389 11.9233L12.0618 14.4078L12.0037 14.4493L11.9455 14.4078L8.45741 11.9147L8.45738 11.9147C7.4996 11.2297 6.62623 10.6072 5.99095 10.156C5.67329 9.93041 5.41523 9.74768 5.23593 9.62139C5.18653 9.58659 5.14315 9.55611 5.10618 9.53022C5.10555 9.5841 5.10492 9.64926 5.10431 9.72496C5.10233 9.9699 5.10049 10.3243 5.0989 10.7618C5.09574 11.6367 5.09362 12.8437 5.09362 14.1717V19V19.1023L4.99131 19.1L4.50751 19.0888L4.50716 19.0888C4.08969 19.0776 3.98324 19.0667 3.82447 19.0064L3.82447 19.0064L3.82321 19.0059C3.44806 18.8575 3.10918 18.51 2.97272 18.1282C2.93725 18.0322 2.92445 17.9447 2.91648 17.2554C2.90844 16.56 2.90631 15.238 2.90214 12.6572L2.90206 12.6075L2.90206 12.6075C2.89921 10.7152 2.89921 9.36858 2.90275 8.47916C2.90451 8.03449 2.90717 7.70376 2.9108 7.47613C2.91261 7.36236 2.91468 7.27387 2.91702 7.20958C2.91924 7.14876 2.92187 7.10195 2.9262 7.07769L3.02465 7.09526L2.92603 7.07871C2.98676 6.71678 3.17618 6.41632 3.48174 6.18528L3.48184 6.1852C3.66483 6.04719 3.79308 5.98773 4.01487 5.93683L4.01507 5.93678C4.12293 5.91226 4.20328 5.89613 4.27168 5.90084C4.3498 5.90622 4.40455 5.93758 4.46233 5.97711C4.51699 6.0145 6.24022 7.24826 8.29556 8.72183L8.29561 8.72187C9.32226 9.45898 10.2589 10.1285 10.9409 10.6138C11.2819 10.8564 11.5592 11.0529 11.7522 11.1887C11.8487 11.2566 11.924 11.3092 11.9755 11.3448C11.9847 11.3511 11.9931 11.3568 12.0007 11.362M21.067 17.9795L20.9691 17.9591L21.067 17.9796C21.067 17.9795 21.067 17.9795 21.067 17.9795ZM21.067 17.9795C21.072 17.9559 21.0746 17.9096 21.0768 17.8526C21.0792 17.7908 21.0814 17.7048 21.0834 17.5936C21.0874 17.371 21.0905 17.045 21.093 16.6044C21.0979 15.723 21.1 14.3813 21.1 12.4863C21.1 10.1398 21.0986 8.8028 21.0926 8.03415C21.0896 7.65001 21.0854 7.40676 21.0797 7.25009C21.0741 7.09671 21.0669 7.01798 21.0548 6.9696L21.0544 6.96818C20.9121 6.43236 20.4706 6.0247 19.9183 5.92201L19.9182 5.922C19.8421 5.90792 19.7836 5.89965 19.7341 5.90103C19.6788 5.90257 19.6377 5.91588 19.5963 5.93664L19.5916 5.93903L19.5917 5.93916C19.5842 5.94338 19.5701 5.95315 19.5573 5.96205L19.4922 6.00766C19.4369 6.04661 19.3579 6.10261 19.2578 6.17375C19.0576 6.31604 18.7728 6.51912 18.4245 6.76799C17.7278 7.26573 16.7769 7.94673 15.7402 8.69101L15.7402 8.69106C14.7037 9.43661 13.7579 10.1139 13.0696 10.6048C12.7254 10.8502 12.4457 11.049 12.2511 11.1864C12.1538 11.2551 12.078 11.3083 12.0262 11.3443C12.0169 11.3508 12.0084 11.3567 12.0007 11.362M12.0007 11.362C12.0144 11.3714 12.0255 11.3789 12.0339 11.3845L12.0472 11.3931C12.0486 11.394 12.0482 11.3937 12.0468 11.3929C12.0462 11.3926 12.0438 11.3913 12.0404 11.3898C12.0387 11.3891 12.0353 11.3877 12.0308 11.3862C12.028 11.3854 12.0165 11.3817 12.0011 11.3817C11.9834 11.3817 11.97 11.3867 11.9684 11.3873C11.9669 11.3878 11.9655 11.3883 11.9643 11.3888C11.962 11.3897 11.9602 11.3905 11.9592 11.391C11.9561 11.3924 11.954 11.3937 11.9536 11.3939C11.9531 11.3942 11.9528 11.3944 11.9528 11.3944C11.9528 11.3944 11.9531 11.3942 11.9538 11.3937L11.9675 11.3847C11.9759 11.379 11.987 11.3715 12.0007 11.362ZM4.99362 19V18.9L4.99594 18.9L4.99362 19ZM4.99362 19H4.89362V18.9977L4.99362 19Z" fill="#F3F3FA" stroke="#F3F3FA" stroke-width="0.2"/>
</svg>
