<svg class="icon-navbar" width="32" height="32" viewBox="0 0 32 32" fill="none" xmlns="http://www.w3.org/2000/svg">
<path class="icon_path" d="M14.7481 2.56811C14.9037 2.4773 15.0963 2.4773 15.2519 2.56811L27.2519 9.56811C27.4055 9.65772 27.5 9.82217 27.5 10V17.5C27.5 17.5171 27.4991 17.534 27.4975 17.5506C28.7233 18.6581 29.5 20.2611 29.5 22.0581V23.2841C29.5 24.0104 29.1062 24.6796 28.4713 25.0324C27.8672 25.368 27.1328 25.368 26.5287 25.0324C26.3352 24.9249 26.1641 24.7879 26.0197 24.629C25.4851 25.4541 24.5563 26 23.5 26C21.8431 26 20.5 24.6569 20.5 23V22.5C20.5 20.8431 21.8431 19.5 23.5 19.5C24.2883 19.5 25.0056 19.8041 25.541 20.3013C25.6179 20.124 25.7945 20 26 20C26.2761 20 26.5 20.2239 26.5 20.5V23.2841C26.5 23.6472 26.6969 23.9818 27.0144 24.1582C27.3164 24.326 27.6836 24.326 27.9856 24.1582C28.3031 23.9818 28.5 23.6472 28.5 23.2841V22.0581C28.5 19.0895 25.9627 16.7548 23.0043 17.0014L22.5432 17.0398C19.6926 17.2773 17.5 19.6603 17.5 22.5208V22.9726C17.5 26.0253 19.9747 28.5 23.0274 28.5H23.9303C24.5561 28.5 25.1734 28.3543 25.7332 28.0744L25.7764 28.0528C26.0234 27.9293 26.3237 28.0294 26.4472 28.2764C26.5707 28.5234 26.4706 28.8237 26.2236 28.9472L26.1804 28.9688C25.4818 29.3181 24.7114 29.5 23.9303 29.5H23.0274C20.3185 29.5 17.995 27.8499 17.0073 25.4999C17.0049 25.5 17.0024 25.5 17 25.5H3C2.72386 25.5 2.5 25.2761 2.5 25V10C2.5 9.82217 2.59446 9.65772 2.74806 9.56811L14.7481 2.56811ZM16.6797 24.5C16.5622 24.01 16.5 23.4986 16.5 22.9726V22.5208C16.5 19.1402 19.0913 16.324 22.4602 16.0433L22.9213 16.0048C24.2245 15.8962 25.4595 16.2061 26.5 16.8182V10.809L15.6708 16.2236C15.2485 16.4348 14.7515 16.4348 14.3292 16.2236L3.5 10.809V24.5H16.6797ZM4.05034 9.96615L14.7764 15.3292C14.9172 15.3996 15.0828 15.3996 15.2236 15.3292L25.9497 9.96615L15 3.57885L4.05034 9.96615ZM25.5 22.5C25.5 21.3954 24.6046 20.5 23.5 20.5C22.3954 20.5 21.5 21.3954 21.5 22.5V23C21.5 24.1046 22.3954 25 23.5 25C24.6046 25 25.5 24.1046 25.5 23V22.5Z" fill="#28344A"/>
</svg>
